# xmcd
#
# Track frame offsets:
#	150
#	19042
#	42542
#	56167
#	70132
#	93212
#	102592
#	115297
#	133637
#	158597
#	173510
#
# Disc length: 2506 seconds
#
# Revision: 1
# Processed by: cddbd v1.5.1PL0 Copyright (c) Steve Scherf et al.
# Submitted via: CDex 1.50Beta5
#
DISCID=8e09c80b
DTITLE=鈴木雄大 - beatmania ANI-SONGS MIX featuring ダイナミックプロ
DYEAR=1999
DGENRE=Game
TTITLE0=鈴木雄大/おれはグレートマジンガー
TTITLE1=浦島りん/今日もどこかでデビルマン
TTITLE2=MEN’S 5/デビルマンのうた
TTITLE3=永野愛/キューティーハニー
TTITLE4=mayuki/妖怪にご用心
TTITLE5=水木一郎/マジンガーZ
TTITLE6=水木一郎/空飛ぶマジンガーZ
TTITLE7=鈴木雄大/デビルマンのうた
TTITLE8=川島和子/夜霧のハニー
TTITLE9=水木一郎/ゲッターロボ!
TTITLE10=中山千夏/ドロロンえん魔くん
EXTD=
EXTT0=
EXTT1=
EXTT2=
EXTT3=
EXTT4=
EXTT5=
EXTT6=
EXTT7=
EXTT8=
EXTT9=
EXTT10=
PLAYORDER=
